<?xml version="1.0" standalone="no"?><!DOCTYPE svg PUBLIC "-//W3C//DTD SVG 1.1//EN" "http://www.w3.org/Graphics/SVG/1.1/DTD/svg11.dtd"><svg class="icon" width="200px" height="200.00px" viewBox="0 0 1024 1024" version="1.1" xmlns="http://www.w3.org/2000/svg"><path d="M800.894178 543.880081c-37.907355-79.850629-174.329421-167.663604-174.329421-167.663604L565.884746 791.356452c0 0-75.815733-63.850214-75.815733-95.776344-7.566326-47.924499 106.154715-319.363631 106.154715-319.363631l-75.813686 23.961738-90.949408-23.961738c-83.380012 7.963369-265.349437 231.514841-295.688419 311.363424-22.702048 71.852468 0 159.66442 30.338982 175.627996 53.077869 31.924083 166.763095 23.961738 166.763095 23.961738l-12.57541 121.467469 411.645384 0-24.213471-278.248212c0 0 34.517141 92.89369 42.12133 140.816143 7.568373 47.89073 6.307659 137.432069 6.307659 137.432069l145.180544 0c-0.334621-7.385201-1.725294-42.361807-7.498788-145.429207C884.27419 727.507262 846.367859 631.694079 800.894178 543.880081zM505.240551 839.279928c-7.567349 7.964392-75.779917 15.927761-144.026254 15.927761-68.24736 0-144.025231 0-159.195745-15.927761-15.134699-15.997346-45.473681-39.924291-30.338982-103.776551 0-87.847767 174.401052-271.473925 189.534727-287.436478 0 0 90.947362 231.513818 113.721041 271.439132 22.737864 39.926338 45.473681 63.850214 45.473681 63.850214S520.411065 823.282582 505.240551 839.279928zM899.340327 1008.637104c0.106424 2.341325 0.106424 1.916653 0.106424 0L899.340327 1008.637104zM526.536576 345.623715c90.515526 0 163.879418-74.30124 163.879418-165.970032 0-91.631954-73.363891-165.896354-163.879418-165.896354-90.551342 0-163.952072 74.264401-163.952072 165.896354C362.584504 271.322475 435.985234 345.623715 526.536576 345.623715z" fill="#1296db" /></svg>