<?xml version="1.0" standalone="no"?><!DOCTYPE svg PUBLIC "-//W3C//DTD SVG 1.1//EN" "http://www.w3.org/Graphics/SVG/1.1/DTD/svg11.dtd"><svg class="icon" width="200px" height="200.00px" viewBox="0 0 1024 1024" version="1.1" xmlns="http://www.w3.org/2000/svg"><path d="M512 960c247.4 0 448-200.6 448-448S759.4 64 512 64 64 264.6 64 512s200.6 448 448 448z m-19.2-599.1c10.6-7.7 27.7-7.9 38.5 0L649.7 447c10.6 7.7 16 23.9 11.9 36.6l-45.3 139.3c-4.1 12.5-17.8 22.6-31.1 22.6H438.8c-13.1 0-27-9.9-31.1-22.6l-45.3-139.3c-4.1-12.5 1.1-28.8 11.9-36.6l118.5-86.1zM207.5 251.3c41.1-47.9 93.2-86 152.5-110.3l-9.6 17.8c-6.5 10.8-3.5 24.9 6.9 31.5L489 266.1c12.8 6.7 33.6 6.6 46.3 0l131.5-75.7c10.4-6.7 13.3-20.8 6.8-31.5l-9.7-17.9c60.7 24.9 113.9 64.2 155.4 113.6l-10.8-2c-12.3-2.9-24.7 4.3-27.8 16.3l-31.3 148.7c-2.4 14.2 4 34 14.3 44l112.7 101.7c9.6 7.9 23.9 6.3 32.1-3.3l1.9-2c-7.4 64.5-30 124.3-64.3 175.8l-5.5-35.8c-1.3-12.5-12.2-22-24.5-21l-150.8 18.8c-14.2 2.3-30.8 14.9-36.9 27.8l-59.5 139.6c-4.3 11.6 1.8 24.6 13.5 29.3l21.4 9.8c-29.4 6.9-60.1 10.5-91.7 10.5-33.9 0-66.8-4.2-98.2-12.1l20.1-9.2c11.7-4.7 17.8-17.7 13.5-29.3L388 722.6c-6.1-12.9-22.7-25.5-36.9-27.8L200.2 676c-12.3-1-23.2 8.5-24.5 21l-4.1 26.7c-32.6-52.4-53.5-112.8-59-177.7l9.5 10c8.2 9.5 22.5 11.1 32.1 3.3l112.7-101.7c10.2-10 16.7-29.8 14.3-44L249.8 265c-3.1-12-15.6-19.2-27.8-16.3l-14.5 2.6z" fill="#ffffff" /></svg>