<?xml version="1.0" standalone="no"?><!DOCTYPE svg PUBLIC "-//W3C//DTD SVG 1.1//EN" "http://www.w3.org/Graphics/SVG/1.1/DTD/svg11.dtd"><svg class="icon" width="200px" height="200.00px" viewBox="0 0 1024 1024" version="1.1" xmlns="http://www.w3.org/2000/svg"><path d="M781.390769 630.153846m-228.430769 0a228.430769 228.430769 0 1 0 456.861538 0 228.430769 228.430769 0 1 0-456.861538 0Z" fill="#D7E9FF" /><path d="M584.467692 630.153846c0-121.304615 94.523077-218.978462 212.676923-226.855384-4.726154 0-11.027692-1.575385-15.753846-1.575385-126.030769 0-228.430769 102.4-228.430769 228.430769s102.4 228.430769 228.430769 228.430769c4.726154 0 11.027692 0 15.753846-1.575384C677.415385 850.707692 584.467692 751.458462 584.467692 630.153846z" fill="#FFFFFF" /><path d="M567.138462 801.870769v31.507693c-29.932308 11.027692-116.578462 34.658462-201.649231 20.48-100.824615-15.753846-293.021538-185.895385-349.735385-259.938462l12.603077-29.932308C86.646154 638.030769 283.569231 806.596923 371.790769 822.350769c83.495385 12.603077 179.593846-15.753846 195.347693-20.48z" fill="#D7E9FF" /><path d="M535.630769 809.747692v31.507693l31.507693-9.452308v-31.507692c-4.726154 3.150769-15.753846 6.301538-31.507693 9.452307z" fill="#94C1FF" /><path d="M33.083077 609.673846l12.603077-28.356923c-6.301538-6.301538-11.027692-12.603077-14.178462-17.329231l-12.603077 29.932308c12.603077 17.329231 33.083077 39.384615 58.289231 63.015385-20.48-18.904615-34.658462-34.658462-44.110769-47.261539z" fill="#FFFFFF" /><path d="M367.064615 507.273846s9.452308 108.701538 45.686154 182.744616c-48.836923-55.138462-69.316923-119.729231-77.193846-155.963077-3.150769-15.753846-4.726154-26.781538-4.726154-26.781539h36.233846z" fill="#5C9EFF" /><path d="M214.252308 374.941538l148.086154 99.249231-7.876924 11.027693-37.80923 51.987692c-31.507692 0-72.467692-3.150769-111.852308-18.904616-50.412308-20.48-42.535385-75.618462-56.713846-81.92h20.48l45.686154-61.44z" fill="#D7E9FF" /><path d="M343.433846 463.163077l-53.563077 74.043077h26.781539l45.686154-61.44z" fill="#94C1FF" /><path d="M165.415385 478.916923l66.166153-91.372308-17.32923-12.603077-56.713846 78.769231z" fill="#FFFFFF" /><path d="M412.750769 688.443077c28.356923 40.96 129.181538 48.836923 144.935385 64.590769 14.178462 14.178462 11.027692 47.261538 11.027692 47.261539-15.753846 6.301538-111.852308 34.658462-196.923077 20.48C283.569231 806.596923 86.646154 638.030769 29.932308 562.412308c61.44-99.249231 113.427692-126.030769 113.427692-126.03077h6.301538c14.178462 6.301538 7.876923 61.44 56.713847 81.92 39.384615 15.753846 80.344615 18.904615 111.852307 18.904616l17.329231-4.726154c7.876923 36.233846 28.356923 102.4 77.193846 155.963077z" fill="#94C1FF" /><path d="M556.110769 754.609231c-9.452308-9.452308-44.110769-15.753846-77.193846-26.781539 0 0 40.96 20.48 45.686154 26.781539 14.178462 14.178462 11.027692 47.261538 11.027692 47.261538-12.603077 4.726154-67.741538 20.48-130.756923 23.630769 74.043077 3.150769 148.086154-18.904615 162.264616-23.630769 0 0 4.726154-33.083077-11.027693-47.261538z" fill="#5C9EFF" /><path d="M45.686154 578.166154c56.713846-91.372308 105.550769-121.304615 111.852308-126.030769-3.150769-7.876923-4.726154-14.178462-9.452308-15.753847-1.575385-1.575385-3.150769-1.575385-6.301539 0 0 0-50.412308 28.356923-113.427692 126.03077 12.603077 17.329231 33.083077 37.809231 56.713846 61.44-15.753846-15.753846-29.932308-31.507692-39.384615-45.686154z" fill="#D7E9FF" /><path d="M678.990769 768.787692l42.535385 80.344616c-55.138462-14.178462-100.824615-48.836923-130.756923-94.523077l88.221538 14.178461zM615.975385 575.015385l-63.015385 64.590769v-11.027692c0-53.563077 18.904615-103.975385 50.412308-143.36l12.603077 89.796923zM861.735385 415.901538L779.815385 456.861538l-81.92-40.96c25.206154-9.452308 51.987692-15.753846 81.92-15.753846 29.932308 0 56.713846 4.726154 81.92 15.753846z" fill="#5C9EFF" /><path d="M781.390769 401.723077c-28.356923 0-53.563077 4.726154-78.769231 14.178461l14.178462 7.876924c25.206154-11.027692 51.987692-18.904615 80.344615-20.48-6.301538 0-11.027692-1.575385-15.753846-1.575385z" fill="#94C1FF" /><path d="M1009.821538 628.578462v11.027692l-63.015384-64.590769 12.603077-89.796923c31.507692 39.384615 50.412308 89.796923 50.412307 143.36zM882.215385 768.787692l89.796923-14.178461c-29.932308 45.686154-77.193846 80.344615-130.756923 94.523077l40.96-80.344616zM841.255385 712.073846v1.575385h-121.304616v-1.575385L683.716923 598.646154l1.575385-1.575385 96.098461-69.316923 94.523077 69.316923 1.575385 1.575385z" fill="#5C9EFF" /><path d="M523.027692 288.295385l-182.744615-122.88L195.347692 362.338462 378.092308 486.793846z" fill="#94C1FF" /><path d="M505.698462 275.692308l-144.935385 198.498461 17.329231 12.603077 144.935384-198.498461z" fill="#5C9EFF" /><path d="M357.612308 178.018462l-17.329231-12.603077L195.347692 362.338462l18.904616 12.603076z" fill="#D7E9FF" /><path d="M623.852308 759.335385l-34.658462-6.301539c29.932308 45.686154 77.193846 80.344615 130.756923 94.523077l-6.301538-12.603077c-36.233846-15.753846-66.166154-42.535385-89.796923-75.618461zM552.96 630.153846V639.606154l33.083077-33.083077c3.150769-28.356923 11.027692-55.138462 23.630769-80.344615l-6.301538-39.384616c-31.507692 39.384615-50.412308 89.796923-50.412308 143.36zM978.313846 630.153846c0 121.304615-94.523077 218.978462-212.676923 226.855385 4.726154 0 11.027692 1.575385 15.753846 1.575384 126.030769 0 228.430769-102.4 228.430769-228.430769s-102.4-228.430769-228.430769-228.430769c-4.726154 0-11.027692 0-15.753846 1.575385 118.153846 7.876923 212.676923 107.126154 212.676923 226.855384z" fill="#94C1FF" /><path d="M972.012308 754.609231l-34.658462 6.301538c-22.055385 33.083077-53.563077 59.864615-91.372308 77.193846l-6.301538 12.603077c55.138462-15.753846 102.4-50.412308 132.332308-96.098461zM1009.821538 630.153846c0-53.563077-18.904615-103.975385-50.412307-141.784615l-6.301539 39.384615c12.603077 23.630769 20.48 51.987692 23.63077 80.344616l33.083076 33.083076v-6.301538-4.726154zM858.584615 415.901538c-25.206154-9.452308-50.412308-14.178462-78.76923-14.178461-4.726154 0-11.027692 0-15.753847 1.575385 28.356923 1.575385 55.138462 9.452308 80.344616 20.48l14.178461-7.876924z" fill="#2287FF" /><path d="M781.390769 864.886154c-20.48 0-40.96-3.150769-61.44-7.876923-55.138462-14.178462-103.975385-50.412308-135.483077-97.673846-23.630769-34.658462-36.233846-75.618462-37.80923-118.153847v-12.603076c0-53.563077 18.904615-105.550769 51.987692-148.086154 26.781538-33.083077 61.44-58.289231 99.249231-72.467693 4.726154-1.575385 7.876923 0 9.452307 4.726154 1.575385 4.726154 0 7.876923-4.726154 9.452308-36.233846 14.178462-69.316923 37.809231-92.947692 67.741538-31.507692 39.384615-48.836923 88.221538-48.836923 138.633847v11.027692c1.575385 39.384615 14.178462 77.193846 36.233846 110.276923 29.932308 45.686154 74.043077 77.193846 126.030769 91.372308 37.809231 11.027692 78.769231 11.027692 115.003077 0 51.987692-14.178462 96.098462-47.261538 126.03077-91.372308 22.055385-33.083077 34.658462-70.892308 36.233846-110.276923v-11.027692c0-50.412308-17.329231-99.249231-48.836923-138.633847-25.206154-29.932308-56.713846-53.563077-92.947693-67.741538-4.726154-1.575385-6.301538-6.301538-4.726153-9.452308 1.575385-4.726154 6.301538-6.301538 9.452307-4.726154 39.384615 14.178462 74.043077 39.384615 99.249231 72.467693 33.083077 40.96 51.987692 94.523077 51.987692 148.086154v11.027692c-1.575385 42.535385-15.753846 83.495385-37.80923 118.153846-31.507692 48.836923-80.344615 83.495385-135.483077 97.673846-18.904615 6.301538-39.384615 9.452308-59.864616 9.452308z" fill="#116FFF" /><path d="M861.735385 423.778462h-3.15077c-48.836923-18.904615-107.126154-18.904615-157.538461 0-4.726154 1.575385-7.876923 0-9.452308-4.726154s0-7.876923 4.726154-9.452308c53.563077-20.48 115.003077-20.48 168.566154 0 4.726154 1.575385 6.301538 6.301538 4.726154 9.452308-1.575385 1.575385-4.726154 4.726154-7.876923 4.726154zM841.255385 721.526154h-121.304616c-3.150769 0-6.301538-1.575385-7.876923-4.726154l-37.809231-115.003077c-1.575385-3.150769 0-6.301538 3.15077-7.876923l1.575384-1.575385 96.098462-69.316923c3.150769-1.575385 6.301538-1.575385 9.452307 0l97.673847 70.892308c3.150769 1.575385 3.150769 4.726154 3.150769 7.876923l-36.233846 115.003077c-1.575385 1.575385-4.726154 4.726154-7.876923 4.726154z m-115.003077-15.753846H834.953846l33.083077-103.975385-88.221538-64.590769-86.646154 64.590769 33.083077 103.975385z" fill="#116FFF" /><path d="M781.390769 535.630769c-4.726154 0-7.876923-3.150769-7.876923-7.876923v-72.467692c0-4.726154 3.150769-7.876923 7.876923-7.876923s7.876923 3.150769 7.876923 7.876923v72.467692c0 4.726154-4.726154 7.876923-7.876923 7.876923z" fill="#116FFF" /><path d="M781.390769 463.163077c-1.575385 0-3.150769 0-3.150769-1.575385l-80.344615-40.96c-3.150769-1.575385-4.726154-4.726154-4.726154-7.876923 0-6.301538 6.301538-9.452308 11.027692-6.301538l81.92 40.96c3.150769 1.575385 4.726154 6.301538 3.150769 11.027692-3.150769 3.150769-6.301538 4.726154-7.876923 4.726154z" fill="#116FFF" /><path d="M781.390769 463.163077c-3.150769 0-6.301538-1.575385-6.301538-4.726154-1.575385-3.150769 0-7.876923 3.150769-11.027692l81.92-40.96c4.726154-3.150769 11.027692 1.575385 11.027692 6.301538 0 3.150769-1.575385 6.301538-4.726154 7.876923l-80.344615 40.96c-3.150769 1.575385-4.726154 1.575385-4.726154 1.575385zM685.292308 604.947692h-3.15077L614.4 582.892308c-4.726154-1.575385-6.301538-6.301538-4.726154-9.452308 1.575385-4.726154 6.301538-6.301538 9.452308-4.726154l69.316923 22.055385c4.726154 1.575385 6.301538 6.301538 4.726154 9.452307-1.575385 3.150769-4.726154 4.726154-7.876923 4.726154z" fill="#116FFF" /><path d="M552.96 647.483077c-1.575385 0-4.726154 0-6.301538-1.575385-3.150769-3.150769-3.150769-7.876923 0-11.027692l63.015384-64.590769c3.150769-3.150769 7.876923-3.150769 11.027692 0 3.150769 3.150769 3.150769 7.876923 0 11.027692l-63.015384 64.590769c-1.575385 1.575385-3.150769 1.575385-4.726154 1.575385z" fill="#116FFF" /><path d="M615.975385 582.892308c-3.150769 0-7.876923-3.150769-7.876923-6.301539l-12.603077-89.796923c0-4.726154 1.575385-7.876923 6.301538-9.452308 4.726154 0 7.876923 1.575385 9.452308 6.301539l12.603077 89.796923c0 4.726154-1.575385 9.452308-7.876923 9.452308 1.575385 0 0 0 0 0zM678.990769 776.664615c-1.575385 0-3.150769 0-4.726154-1.575384-3.150769-3.150769-4.726154-7.876923-1.575384-11.027693l42.535384-58.28923c3.150769-3.150769 7.876923-4.726154 11.027693-1.575385 3.150769 3.150769 4.726154 7.876923 1.575384 11.027692l-1.575384 1.575385-40.96 56.713846c-1.575385 1.575385-3.150769 3.150769-6.301539 3.150769z" fill="#116FFF" /><path d="M721.526154 857.009231c-3.150769 0-6.301538-1.575385-6.301539-4.726154L672.689231 771.938462c-1.575385-3.150769 0-7.876923 3.150769-11.027693 3.150769-1.575385 7.876923 0 11.027692 3.150769l42.535385 80.344616c1.575385 3.150769 0 7.876923-3.150769 11.027692-3.150769 1.575385-4.726154 1.575385-4.726154 1.575385z" fill="#116FFF" /><path d="M678.990769 776.664615s-1.575385 0 0 0l-89.796923-15.753846c-4.726154 0-7.876923-4.726154-6.301538-9.452307 0-4.726154 4.726154-7.876923 9.452307-6.301539l89.796923 14.178462c4.726154 0 7.876923 4.726154 6.301539 9.452307-1.575385 4.726154-6.301538 7.876923-9.452308 7.876923zM882.215385 776.664615c-3.150769 0-4.726154-1.575385-6.301539-3.150769l-42.535384-58.289231c-3.150769-3.150769-1.575385-7.876923 1.575384-11.027692 3.150769-3.150769 7.876923-1.575385 11.027692 1.575385l1.575385 1.575384 40.96 56.713846c3.150769 3.150769 1.575385 7.876923-1.575385 11.027693-1.575385 1.575385-3.150769 1.575385-4.726153 1.575384z" fill="#116FFF" /><path d="M882.215385 776.664615c-3.150769 0-7.876923-3.150769-7.876923-6.301538 0-4.726154 1.575385-7.876923 6.301538-9.452308l89.796923-14.178461c4.726154-1.575385 7.876923 1.575385 9.452308 6.301538 0 4.726154-1.575385 7.876923-6.301539 9.452308l-91.372307 14.178461c1.575385 0 0 0 0 0z" fill="#116FFF" /><path d="M841.255385 857.009231c-1.575385 0-4.726154-1.575385-6.301539-3.150769-3.150769-3.150769-3.150769-6.301538-1.575384-9.452308l40.96-78.769231c1.575385-3.150769 6.301538-4.726154 11.027692-3.150769 3.150769 1.575385 4.726154 6.301538 3.150769 11.027692l-40.96 80.344616-1.575385 1.575384c-1.575385 1.575385-3.150769 1.575385-4.726153 1.575385zM875.913846 604.947692c-3.150769 0-6.301538-1.575385-7.876923-4.726154-1.575385-4.726154 1.575385-7.876923 4.726154-9.452307l69.316923-22.055385c4.726154-1.575385 7.876923 1.575385 9.452308 4.726154 1.575385 4.726154-1.575385 7.876923-4.726154 9.452308l-69.316923 22.055384h-1.575385z" fill="#116FFF" /><path d="M945.230769 582.892308c-4.726154 0-7.876923-4.726154-7.876923-9.452308l12.603077-89.796923c0-4.726154 4.726154-7.876923 9.452308-6.301539 4.726154 0 7.876923 4.726154 6.301538 9.452308l-12.603077 89.796923c0 3.150769-3.150769 6.301538-7.876923 6.301539z" fill="#116FFF" /><path d="M1008.246154 647.483077c-1.575385 0-4.726154 0-6.301539-3.150769l-63.015384-64.59077c-3.150769-3.150769-3.150769-7.876923 0-11.027692 3.150769-3.150769 7.876923-3.150769 11.027692 0l63.015385 64.590769c3.150769 3.150769 3.150769 7.876923 0 11.027693 0 3.150769-1.575385 3.150769-4.726154 3.150769zM420.627692 864.886154c-18.904615 0-36.233846-1.575385-55.138461-4.726154C256.787692 842.830769 63.015385 667.963077 11.027692 598.646154c-3.150769-3.150769-1.575385-7.876923 1.575385-11.027692 3.150769-3.150769 7.876923-1.575385 11.027692 1.575384 58.289231 75.618462 247.335385 241.033846 345.009231 256.787692 89.796923 14.178462 181.169231-14.178462 196.923077-20.48 4.726154-1.575385 7.876923 1.575385 9.452308 4.726154 1.575385 4.726154-1.575385 7.876923-4.726154 9.452308-14.178462 4.726154-77.193846 25.206154-149.661539 25.206154z" fill="#116FFF" /><path d="M420.627692 833.378462c-17.329231 0-33.083077-1.575385-50.412307-3.15077-89.796923-14.178462-288.295385-184.32-346.584616-261.513846-3.150769-3.150769-1.575385-7.876923 1.575385-11.027692 3.150769-3.150769 7.876923-1.575385 11.027692 1.575384 56.713846 74.043077 250.486154 241.033846 337.132308 255.212308 75.618462 12.603077 163.84-11.027692 192.196923-20.48 4.726154-1.575385 7.876923 0 9.452308 4.726154 1.575385 4.726154 0 7.876923-4.726154 9.452308 0 1.575385-72.467692 25.206154-149.661539 25.206154z" fill="#116FFF" /><path d="M17.329231 601.796923H14.178462c-4.726154-1.575385-6.301538-6.301538-4.726154-11.027692l12.603077-29.932308c1.575385-4.726154 6.301538-6.301538 11.027692-4.726154 4.726154 1.575385 6.301538 6.301538 4.726154 11.027693l-12.603077 29.932307c-3.150769 3.150769-4.726154 4.726154-7.876923 4.726154z" fill="#116FFF" /><path d="M29.932308 570.289231c-1.575385 0-3.150769 0-4.726154-1.575385-3.150769-1.575385-4.726154-7.876923-3.150769-11.027692 63.015385-99.249231 113.427692-127.606154 115.003077-129.181539 4.726154-1.575385 9.452308-1.575385 12.603076 0 7.876923 4.726154 11.027692 14.178462 14.178462 25.206154 6.301538 18.904615 12.603077 44.110769 42.535385 56.713846 39.384615 15.753846 80.344615 18.904615 108.701538 17.329231 4.726154 0 7.876923 3.150769 7.876923 7.876923s-3.150769 7.876923-7.876923 7.876923c-29.932308 0-72.467692-1.575385-115.003077-18.904615-36.233846-14.178462-45.686154-45.686154-51.987692-66.166154-1.575385-6.301538-4.726154-14.178462-6.301539-15.753846 0 0-48.836923 28.356923-108.701538 122.88 1.575385 4.726154 0 4.726154-3.150769 4.726154zM567.138462 809.747692c-4.726154 0-7.876923-4.726154-7.876924-7.876923 1.575385-7.876923 0-31.507692-9.452307-40.96-4.726154-4.726154-23.630769-9.452308-42.535385-15.753846-37.809231-11.027692-83.495385-23.630769-102.4-50.412308-3.150769-3.150769-1.575385-7.876923 1.575385-11.027692 3.150769-3.150769 7.876923-1.575385 11.027692 1.575385 15.753846 22.055385 61.44 34.658462 94.523077 44.110769 26.781538 7.876923 42.535385 12.603077 48.836923 18.904615 15.753846 17.329231 14.178462 50.412308 12.603077 53.563077 1.575385 4.726154-1.575385 7.876923-6.301538 7.876923z" fill="#116FFF" /><path d="M567.138462 841.255385c-4.726154 0-7.876923-3.150769-7.876924-7.876923v-31.507693c0-4.726154 3.150769-7.876923 7.876924-7.876923s7.876923 3.150769 7.876923 7.876923v31.507693c0 3.150769-3.150769 7.876923-7.876923 7.876923zM412.750769 696.32c-1.575385 0-4.726154-1.575385-6.301538-3.150769-50.412308-56.713846-70.892308-124.455385-80.344616-159.113846-3.150769-17.329231-4.726154-26.781538-4.726153-26.781539 0-4.726154 3.150769-7.876923 6.301538-9.452308 4.726154 0 7.876923 3.150769 9.452308 6.301539 0 0 1.575385 9.452308 4.726154 25.206154 7.876923 33.083077 28.356923 99.249231 75.618461 152.812307 3.150769 3.150769 3.150769 7.876923 0 11.027693-1.575385 3.150769-3.150769 3.150769-4.726154 3.150769z" fill="#116FFF" /><path d="M367.064615 515.150769h-37.80923c-4.726154 0-7.876923-3.150769-7.876923-7.876923s3.150769-7.876923 7.876923-7.876923h37.80923c4.726154 0 7.876923 3.150769 7.876923 7.876923s-4.726154 7.876923-7.876923 7.876923z" fill="#116FFF" /><path d="M412.750769 696.32c-3.150769 0-6.301538-1.575385-6.301538-4.726154-37.809231-74.043077-45.686154-181.169231-47.261539-184.32 0-4.726154 3.150769-7.876923 7.876923-7.876923s7.876923 3.150769 7.876923 7.876923c0 1.575385 9.452308 107.126154 45.686154 179.593846 1.575385 3.150769 0 7.876923-3.150769 11.027693-3.150769-1.575385-4.726154-1.575385-4.726154-1.575385zM346.584615 650.633846c-3.150769 0-6.301538-1.575385-6.301538-4.726154-1.575385-3.150769 0-7.876923 3.150769-11.027692l23.630769-12.603077c3.150769-1.575385 7.876923 0 11.027693 3.150769s0 7.876923-3.15077 11.027693l-23.630769 12.603077c-3.150769 1.575385-3.150769 1.575385-4.726154 1.575384zM321.378462 600.221538c-3.150769 0-6.301538-1.575385-6.301539-4.726153-1.575385-3.150769 0-7.876923 3.150769-11.027693l26.781539-14.178461c3.150769-1.575385 7.876923 0 11.027692 3.150769 1.575385 3.150769 0 7.876923-3.150769 11.027692l-28.356923 14.178462c-1.575385 1.575385-3.150769 1.575385-3.150769 1.575384zM354.461538 494.670769c-1.575385 0-3.150769 0-4.726153-1.575384-3.150769-3.150769-4.726154-7.876923-1.575385-11.027693l7.876923-11.027692c3.150769-3.150769 7.876923-4.726154 11.027692-1.575385 3.150769 3.150769 4.726154 7.876923 1.575385 11.027693l-7.876923 11.027692c-1.575385 1.575385-4.726154 3.150769-6.301539 3.150769zM168.566154 444.258462c-1.575385 0-3.150769 0-4.726154-1.575385-3.150769-3.150769-4.726154-7.876923-1.575385-11.027692l45.686154-61.44c3.150769-3.150769 7.876923-4.726154 11.027693-1.575385 3.150769 3.150769 4.726154 7.876923 1.575384 11.027692L174.867692 441.107692c-1.575385 3.150769-3.150769 3.150769-6.301538 3.15077zM195.347692 370.215385c-1.575385 0-3.150769 0-4.726154-1.575385-3.150769-3.150769-4.726154-7.876923-1.575384-11.027692l144.935384-196.923077c3.150769-3.150769 7.876923-4.726154 11.027693-1.575385 3.150769 3.150769 4.726154 7.876923 1.575384 11.027692l-144.935384 196.923077c-1.575385 3.150769-4.726154 3.150769-6.301539 3.15077zM378.092308 494.670769c-1.575385 0-3.150769 0-4.726154-1.575384-3.150769-3.150769-4.726154-7.876923-1.575385-11.027693L516.726154 283.569231c3.150769-3.150769 7.876923-4.726154 11.027692-1.575385 3.150769 3.150769 4.726154 7.876923 1.575385 11.027692l-144.935385 196.923077c-1.575385 3.150769-3.150769 4.726154-6.301538 4.726154z" fill="#116FFF" /><path d="M378.092308 494.670769c-1.575385 0-3.150769 0-4.726154-1.575384l-182.744616-122.88c-3.150769-3.150769-4.726154-7.876923-1.575384-11.027693 3.150769-3.150769 7.876923-4.726154 11.027692-1.575384l184.32 122.88c3.150769 3.150769 4.726154 7.876923 1.575385 11.027692-1.575385 1.575385-4.726154 3.150769-7.876923 3.150769zM269.390769 864.886154h-252.061538c-4.726154 0-7.876923-3.150769-7.876923-7.876923s3.150769-7.876923 7.876923-7.876923h252.061538c4.726154 0 7.876923 3.150769 7.876923 7.876923s-4.726154 7.876923-7.876923 7.876923z" fill="#116FFF" /></svg>