<?xml version="1.0" standalone="no"?><!DOCTYPE svg PUBLIC "-//W3C//DTD SVG 1.1//EN" "http://www.w3.org/Graphics/SVG/1.1/DTD/svg11.dtd"><svg class="icon" width="200px" height="200.00px" viewBox="0 0 1024 1024" version="1.1" xmlns="http://www.w3.org/2000/svg"><path d="M466.944 465.0496m-145.1008 0a145.1008 145.1008 0 1 0 290.2016 0 145.1008 145.1008 0 1 0-290.2016 0Z" fill="#DCEDFF" /><path d="M819.712 692.1216c-25.8048 0-49.8176 7.7824-69.888 21.0944l-146.8928-145.0496c21.76-28.672 34.7136-64.3584 34.7136-103.0656 0-35.328-10.8032-68.1984-29.2352-95.4368l86.784-89.1392c14.2848 7.6288 30.6176 11.9808 47.9232 11.9808 56.32 0 102.144-45.824 102.144-102.144s-45.824-102.144-102.144-102.144-102.144 45.824-102.144 102.144c0 20.48 6.0928 39.4752 16.4864 55.5008l-83.8656 86.1184A169.73824 169.73824 0 0 0 466.944 294.4c-42.0864 0-80.64 15.36-110.4384 40.704L280.4224 263.168c7.424-14.1312 11.6736-30.208 11.6736-47.2576 0-56.32-45.824-102.144-102.144-102.144s-102.144 45.824-102.144 102.144S133.632 318.0544 189.952 318.0544c20.736 0 40.0384-6.2464 56.1664-16.896l76.8 72.4992a169.3952 169.3952 0 0 0-26.624 91.392c0 42.1888 15.4112 80.8448 40.9088 110.6944l-56.2176 61.2864a126.14656 126.14656 0 0 0-66.4064-18.8416c-69.9392 0-126.8224 56.8832-126.8224 126.8224s56.8832 126.8224 126.8224 126.8224 126.8224-56.8832 126.8224-126.8224c0-27.0848-8.5504-52.224-23.0912-72.8576L375.9104 609.28a169.3696 169.3696 0 0 0 91.0848 26.4704c37.0176 0 71.2704-11.8784 99.2256-31.9488l147.456 145.664a126.1568 126.1568 0 0 0-20.7872 69.4272c0 69.9392 56.8832 126.8224 126.8224 126.8224s126.8224-56.8832 126.8224-126.8224-56.9344-126.7712-126.8224-126.7712zM743.1168 139.3152c28.1088 0 50.944 22.8352 50.944 50.944s-22.8352 50.944-50.944 50.944-50.944-22.8864-50.944-50.944 22.8352-50.944 50.944-50.944zM189.9008 266.8544c-28.1088 0-50.944-22.8864-50.944-50.944s22.8352-50.944 50.944-50.944 50.944 22.8352 50.944 50.944-22.8352 50.944-50.944 50.944z m24.6272 553.7792c-41.6768 0-75.6224-33.8944-75.6224-75.6224s33.8944-75.6224 75.6224-75.6224 75.6224 33.8944 75.6224 75.6224-33.8944 75.6224-75.6224 75.6224z m252.416-236.0832c-65.8944 0-119.5008-53.6064-119.5008-119.5008S401.0496 345.5488 466.944 345.5488s119.5008 53.6064 119.5008 119.5008-53.6064 119.5008-119.5008 119.5008z m352.768 309.9648c-41.6768 0-75.6224-33.8944-75.6224-75.6224s33.8944-75.6224 75.6224-75.6224c41.6768 0 75.6224 33.8944 75.6224 75.6224s-33.9456 75.6224-75.6224 75.6224z" fill="#5B90EF" /></svg>